<?xml version="1.0" encoding="UTF-8"?>
<svg width="52px" height="52px" viewBox="0 0 52 52" version="1.1" xmlns="http://www.w3.org/2000/svg" xmlns:xlink="http://www.w3.org/1999/xlink">
    <!-- Generator: Sketch 45.2 (43514) - http://www.bohemiancoding.com/sketch -->
    <title>Add</title>
    <desc>Created with Sketch.</desc>
    <defs></defs>
    <g id="Article-Builder" stroke="none" stroke-width="1" fill="none" fill-rule="evenodd">
        <g id="3.3-Component-Chooser" transform="translate(-657.000000, -692.000000)" fill="#AAB8C2">
            <g id="Group" transform="translate(622.000000, 692.000000)">
                <path d="M79.6998469,0.500208804 L42.3001531,0.500208804 C38.5592771,0.500208804 35.5002088,3.55927709 35.5002088,7.30015312 L35.5002088,44.6998469 C35.5002088,48.4407229 38.5592771,51.4997912 42.3001531,51.4997912 L79.6998469,51.4997912 C83.4407229,51.4997912 86.4997912,48.4407229 86.4997912,44.6998469 L86.4997912,7.30015312 C86.4997912,3.55927709 83.4407229,0.500208804 79.6998469,0.500208804 Z M84.2331431,44.6998469 C84.2331431,47.1922531 82.1922531,49.2331431 79.6998469,49.2331431 L42.3001531,49.2331431 C39.8077469,49.2331431 37.7668569,47.1922531 37.7668569,44.6998469 L37.7668569,7.30015312 C37.7668569,4.80774687 39.8077469,2.76685691 42.3001531,2.76685691 L79.6998469,2.76685691 C82.1922531,2.76685691 84.2331431,4.80774687 84.2331431,7.30015312 L84.2331431,44.6998469 Z M62.1333241,11.2667873 L59.8666759,11.2667873 L59.8666759,24.8666759 L46.2667873,24.8666759 L46.2667873,27.1333241 L59.8666759,27.1333241 L59.8666759,40.7332127 L62.1333241,40.7332127 L62.1333241,27.1333241 L75.7332127,27.1333241 L75.7332127,24.8666759 L62.1333241,24.8666759 L62.1333241,11.2667873 Z" id="Add"></path>
            </g>
        </g>
    </g>
</svg>