<?xml version="1.0" encoding="UTF-8"?>
<svg width="130px" height="44px" viewBox="0 0 130 44" version="1.1" xmlns="http://www.w3.org/2000/svg" xmlns:xlink="http://www.w3.org/1999/xlink">
    <!-- Generator: Sketch 45.2 (43514) - http://www.bohemiancoding.com/sketch -->
    <title>CallToAction</title>
    <desc>Created with Sketch.</desc>
    <defs></defs>
    <g id="Article-Builder" stroke="none" stroke-width="1" fill="none" fill-rule="evenodd">
        <g id="3.3-Component-Chooser" transform="translate(-618.000000, -493.000000)" fill="#AAB8C2">
            <path d="M619,493 L712,493 C712.552285,493 713,493.447715 713,494 L713,508 L713,508 C713,508.552285 712.552285,509 712,509 L619,509 C618.447715,509 618,508.552285 618,508 L618,494 L618,494 C618,493.447715 618.447715,493 619,493 L619,493 Z M619,517 L747,517 C747.552285,517 748,517.447715 748,518 L748,524 C748,524.552285 747.552285,525 747,525 L619,525 C618.447715,525 618,524.552285 618,524 L618,518 C618,517.447715 618.447715,517 619,517 L619,517 Z M619,529 L737,529 C737.552285,529 738,529.447715 738,530 L738,536 C738,536.552285 737.552285,537 737,537 L619,537 C618.447715,537 618,536.552285 618,536 L618,530 C618,529.447715 618.447715,529 619,529 L619,529 Z M737.509418,499.093723 L731.444889,493 L746.673779,493 C747.336589,493 747.912363,493.485544 747.912363,494.148355 L747.912363,509.060742 L742.961192,504.490918 C737.788673,508.998482 729.968431,509.087582 724.707911,504.357712 C724.485547,504.136421 724.221294,503.916196 724,503.696002 C728.244386,505.153734 733.149328,504.09239 736.332205,500.557125 C736.685721,500.159741 737.244068,499.492256 737.509418,499.093723 Z" id="CallToAction"></path>
        </g>
    </g>
</svg>