<?xml version="1.0" encoding="UTF-8"?>
<svg width="27px" height="50px" viewBox="0 0 27 50" version="1.1" xmlns="http://www.w3.org/2000/svg" xmlns:xlink="http://www.w3.org/1999/xlink">
    <!-- Generator: Sketch 45.2 (43514) - http://www.bohemiancoding.com/sketch -->
    <title>Facebook</title>
    <desc>Created with Sketch.</desc>
    <defs></defs>
    <g id="Article-Builder" stroke="none" stroke-width="1" fill="none" fill-rule="evenodd">
        <g id="3.3-Component-Chooser" transform="translate(-1002.000000, -490.000000)" fill="#AAB8C2">
            <path d="M1028.67299,492.415551 C1028.61045,492.037712 1028.34987,491.722391 1027.99031,491.58951 C1025.8041,490.792153 1022.91425,490 1019.81328,490 C1017.38212,490 1014.80501,490.495097 1012.4074,491.891762 C1011.20093,492.592726 1010.24981,493.47867 1009.52803,494.476683 C1008.43883,495.975004 1007.85774,497.699997 1007.53201,499.451073 C1007.26882,500.866008 1007.1698,502.309629 1007.11508,503.708888 C1006.4897,503.724524 1005.78353,503.727126 1005.13733,503.727126 C1004.57449,503.727126 1004.05854,503.724524 1003.68331,503.719315 C1003.49569,503.716706 1003.34456,503.716706 1003.24033,503.714098 C1003.1361,503.711496 1003.07877,503.711496 1003.07877,503.711496 C1002.79474,503.70628 1002.51853,503.818335 1002.3153,504.018979 C1002.11466,504.219622 1002,504.495832 1002,504.779846 L1002.04169,511.823506 C1002.04691,512.415016 1002.52376,512.930987 1003.10748,512.930987 L1003.84753,512.930987 C1004.88464,512.930987 1006.82069,512.886686 1008.30861,512.91535 C1008.52749,517.754256 1008.57961,525.006111 1008.57961,530.632234 C1008.57961,533.003491 1008.56919,535.072428 1008.56137,536.560342 C1008.55616,537.302999 1008.55094,537.891894 1008.54834,538.303613 C1008.54573,538.712718 1008.54313,538.931606 1008.54313,538.931606 C1008.54052,539.215634 1008.64997,539.486633 1008.85322,539.689872 C1009.05386,539.890515 1009.32747,540.002564 1009.61148,539.999955 L1019.03927,539.953053 C1019.3233,539.950445 1019.58909,539.838403 1019.78713,539.635151 C1019.98778,539.434508 1020.09462,539.166117 1020.09201,538.879487 C1020.09201,538.879487 1020.0425,533.081659 1019.98517,526.828084 C1019.93566,521.44978 1019.88094,515.743274 1019.84967,513.084975 C1020.43076,513.074548 1021.10825,513.071947 1021.76752,513.071947 C1022.53879,513.071947 1023.28665,513.077157 1023.84433,513.082366 C1024.12054,513.084975 1024.35245,513.087576 1024.5114,513.090185 C1024.67296,513.092793 1024.76156,513.092793 1024.76156,513.092793 C1025.04558,513.098003 1025.31919,512.985954 1025.51982,512.787919 C1025.72307,512.589877 1025.83512,512.318884 1025.83772,512.034856 L1025.85075,505.510048 C1025.85075,505.22602 1025.74131,504.863818 1025.53806,504.663194 C1025.33742,504.462551 1025.06902,504.2593 1024.785,504.2593 L1024.43322,504.2593 C1024.20652,504.2593 1023.88601,504.355712 1023.50298,504.355712 C1022.31999,504.355712 1020.53242,504.397404 1019.11489,504.37395 C1019.14094,503.649572 1019.20609,503.034594 1019.31293,502.489993 C1019.41455,501.958413 1019.55787,501.528469 1019.72464,501.174051 C1019.84972,500.908261 1019.99043,500.6998 1020.13896,500.522611 C1020.36566,500.259429 1020.6106,500.082234 1020.92851,499.949339 C1021.24381,499.819052 1021.63988,499.740877 1022.14799,499.740877 C1023.04961,499.738269 1024.28991,500.004059 1025.84299,500.606009 C1025.85341,500.611219 1025.86644,500.611219 1025.87948,500.616428 C1025.8925,500.621645 1025.90292,500.626855 1025.91595,500.632065 C1025.93941,500.639883 1025.96025,500.639883 1025.9837,500.645093 C1026.02018,500.652911 1026.05406,500.660729 1026.09054,500.665939 C1026.12441,500.671155 1026.15829,500.671155 1026.19216,500.673757 C1026.22864,500.673757 1026.26252,500.676365 1026.29639,500.673757 C1026.33027,500.671155 1026.36414,500.665939 1026.39801,500.660729 C1026.43189,500.655519 1026.46576,500.647701 1026.49964,500.639883 C1026.53091,500.632065 1026.56478,500.619037 1026.59344,500.608617 C1026.62732,500.598191 1026.65859,500.585163 1026.68985,500.569526 C1026.72113,500.55389 1026.74718,500.53826 1026.77585,500.520016 C1026.80451,500.501778 1026.83578,500.48354 1026.86184,500.462694 C1026.8879,500.444449 1026.91135,500.421002 1026.93741,500.397547 C1026.96347,500.374093 1026.98952,500.350645 1027.01297,500.324582 C1027.03643,500.298526 1027.05466,500.27247 1027.07551,500.246408 C1027.09636,500.217744 1027.1172,500.189079 1027.13545,500.157813 C1027.15369,500.129149 1027.16932,500.095275 1027.18235,500.064009 C1027.19277,500.043163 1027.2058,500.022317 1027.21362,500.001471 C1027.21883,499.988443 1027.22143,499.978016 1027.22404,499.962387 C1027.22664,499.95196 1027.23446,499.941541 1027.23707,499.928506 C1027.45074,499.222339 1027.81815,498.039345 1028.13349,496.791179 C1028.28984,496.165794 1028.43575,495.522199 1028.5452,494.902018 C1028.65204,494.281844 1028.725,493.69034 1028.725,493.137934 C1028.725,492.890389 1028.70936,492.653263 1028.67288,492.416158 L1028.67299,492.415551 Z M1019.77953,498.148272 C1019.25577,498.419272 1018.79713,498.802321 1018.42977,499.263557 C1017.87735,499.956717 1017.52294,500.808773 1017.30147,501.7755 C1017.07738,502.744829 1016.98357,503.844505 1016.98357,505.0848 C1016.98357,505.212485 1016.98618,505.340164 1016.98618,505.47045 C1016.9966,506.035904 1017.4474,506.340785 1018.01288,506.358996 C1019.5216,506.408507 1021.99185,506.259975 1023.50325,506.259975 L1023.72995,506.259975 L1023.72213,510.804434 C1023.18013,510.799224 1022.48697,510.87479 1021.7704,510.87479 C1020.64211,510.87479 1019.47212,510.924301 1018.72426,510.960783 C1018.1536,510.989447 1017.70804,511.481937 1017.71584,512.055189 C1017.74451,513.866168 1017.80965,520.589098 1017.86697,526.840271 C1017.89564,529.967192 1017.92169,532.984646 1017.94254,535.215416 C1017.95297,536.296814 1017.96078,537.195833 1017.96599,537.834225 L1010.67485,537.873309 C1010.68527,536.46878 1010.70091,533.800474 1010.70091,530.605511 C1010.70091,524.565334 1010.64358,516.659611 1010.37779,511.773943 C1010.34913,511.224125 1009.90615,510.791539 1009.35637,510.770726 C1007.92062,510.721216 1005.53368,510.710796 1004.15784,510.710796 L1004.12917,505.848409 C1004.42884,505.851017 1004.7754,505.853619 1005.1402,505.853619 C1006.1773,505.853619 1007.3655,505.843199 1008.20461,505.793689 C1008.75443,505.762416 1009.18962,505.314228 1009.20262,504.76439 C1009.25995,502.53382 1009.38763,500.266827 1009.97917,498.341177 C1010.27362,497.377052 1010.68013,496.498912 1011.24294,495.727572 C1011.80576,494.956231 1012.5198,494.286553 1013.47612,493.728944 C1015.48515,492.558959 1017.66095,492.126426 1019.81334,492.126426 C1022.26278,492.123818 1024.65745,492.699698 1026.59618,493.356382 C1026.58054,493.687312 1026.53104,494.096436 1026.45286,494.539375 C1026.30955,495.357611 1026.07763,496.290451 1025.84311,497.145109 C1025.73627,497.535976 1025.62683,497.908578 1025.52521,498.249921 C1024.27444,497.846027 1023.15916,497.627145 1022.14554,497.624537 C1021.28301,497.621929 1020.48045,497.783488 1019.77948,498.148299 L1019.77953,498.148272 Z" id="Facebook"></path>
        </g>
    </g>
</svg>