<?xml version="1.0" encoding="UTF-8"?>
<svg width="128px" height="68px" viewBox="0 0 128 68" version="1.1" xmlns="http://www.w3.org/2000/svg" xmlns:xlink="http://www.w3.org/1999/xlink">
    <!-- Generator: Sketch 45.2 (43514) - http://www.bohemiancoding.com/sketch -->
    <title>Grid</title>
    <desc>Created with Sketch.</desc>
    <defs></defs>
    <g id="Article-Builder" stroke="none" stroke-width="1" fill="none" fill-rule="evenodd">
        <g id="3.3-Component-Chooser" transform="translate(-287.000000, -481.000000)" fill="#AAB8C2">
            <path d="M288,481 L326,481 C326.552285,481 327,481.447715 327,482 L327,520 C327,520.552285 326.552285,521 326,521 L288,521 C287.447715,521 287,520.552285 287,520 L287,482 L287,482 C287,481.447715 287.447715,481 288,481 L288,481 Z M332,481 L370,481 C370.552285,481 371,481.447715 371,482 L371,520 C371,520.552285 370.552285,521 370,521 L332,521 C331.447715,521 331,520.552285 331,520 L331,482 L331,482 C331,481.447715 331.447715,481 332,481 Z M376,481 L414,481 C414.552285,481 415,481.447715 415,482 L415,520 C415,520.552285 414.552285,521 414,521 L376,521 C375.447715,521 375,520.552285 375,520 L375,482 L375,482 C375,481.447715 375.447715,481 376,481 Z M320.15548,490.677118 C320.042302,490.257805 319.828314,489.873118 319.535773,489.548422 C318.999568,489.067251 318.266071,488.874915 317.880783,488.80503 C317.810279,488.789567 317.738536,488.779672 317.666171,488.772251 C317.647617,488.769778 317.634012,488.76854 317.627208,488.767923 C317.623497,488.767923 317.621642,488.767304 317.621642,488.767304 C317.5901,488.683192 317.559796,488.598464 317.528872,488.514345 C317.46084,488.330654 317.38848,488.150066 317.284573,487.989887 C317.248703,487.934843 317.208502,487.881657 317.163354,487.832179 C316.767537,487.326278 316.16762,487.044868 315.559028,486.957677 C315.319685,486.923662 315.167533,486.918095 314.970875,486.943453 C314.929438,486.949018 314.886145,486.955204 314.839762,486.963244 C314.62021,487.001589 314.417963,487.111056 314.209542,487.172283 C314.10564,487.117239 314.032659,487.023851 313.9436,486.940983 C313.928757,486.926757 313.913295,486.91377 313.899071,486.900165 C313.469245,486.49754 312.947875,486.198824 312.381366,486.09368 C311.846395,485.994725 311.73259,485.945248 310.87107,486.09368 C310.825922,486.101719 310.780775,486.112234 310.735626,486.122129 C309.745466,486.270561 308.950808,486.939127 308.707618,487.805618 C308.663089,487.907046 308.62227,488.010953 308.589492,488.11795 C308.506,488.332562 308.256135,488.321431 308.079252,488.387596 C308.037815,488.40182 307.996997,488.418519 307.956178,488.435218 C307.102702,488.776602 306.396406,489.540418 306.14967,490.48175 C306.095245,490.636985 306.055044,490.797787 306.030305,490.962304 C306.010514,491.092181 306,491.224525 306,491.358121 C306,492.487435 306.726071,493.466401 307.77991,493.937107 C308.207266,494.128207 308.687819,494.236439 309.196191,494.236439 L317.053793,494.236439 C317.622788,494.236439 318.156508,494.100378 318.61974,493.864736 C318.980298,493.681678 319.296952,493.43738 319.553615,493.146692 C319.988397,492.655008 320.25,492.034082 320.25,491.358073 C320.249383,491.123053 320.214129,490.896076 320.155374,490.677141 L320.15548,490.677118 Z M364.15548,490.677118 C364.042302,490.257805 363.828314,489.873118 363.535773,489.548422 C362.999568,489.067251 362.266071,488.874915 361.880783,488.80503 C361.810279,488.789567 361.738536,488.779672 361.666171,488.772251 C361.647617,488.769778 361.634012,488.76854 361.627208,488.767923 C361.623497,488.767923 361.621642,488.767304 361.621642,488.767304 C361.5901,488.683192 361.559796,488.598464 361.528872,488.514345 C361.46084,488.330654 361.38848,488.150066 361.284573,487.989887 C361.248703,487.934843 361.208502,487.881657 361.163354,487.832179 C360.767537,487.326278 360.16762,487.044868 359.559028,486.957677 C359.319685,486.923662 359.167533,486.918095 358.970875,486.943453 C358.929438,486.949018 358.886145,486.955204 358.839762,486.963244 C358.62021,487.001589 358.417963,487.111056 358.209542,487.172283 C358.10564,487.117239 358.032659,487.023851 357.9436,486.940983 C357.928757,486.926757 357.913295,486.91377 357.899071,486.900165 C357.469245,486.49754 356.947875,486.198824 356.381366,486.09368 C355.846395,485.994725 355.73259,485.945248 354.87107,486.09368 C354.825922,486.101719 354.780775,486.112234 354.735626,486.122129 C353.745466,486.270561 352.950808,486.939127 352.707618,487.805618 C352.663089,487.907046 352.62227,488.010953 352.589492,488.11795 C352.506,488.332562 352.256135,488.321431 352.079252,488.387596 C352.037815,488.40182 351.996997,488.418519 351.956178,488.435218 C351.102702,488.776602 350.396406,489.540418 350.14967,490.48175 C350.095245,490.636985 350.055044,490.797787 350.030305,490.962304 C350.010514,491.092181 350,491.224525 350,491.358121 C350,492.487435 350.726071,493.466401 351.77991,493.937107 C352.207266,494.128207 352.687819,494.236439 353.196191,494.236439 L361.053793,494.236439 C361.622788,494.236439 362.156508,494.100378 362.61974,493.864736 C362.980298,493.681678 363.296952,493.43738 363.553615,493.146692 C363.988397,492.655008 364.25,492.034082 364.25,491.358073 C364.249383,491.123053 364.214129,490.896076 364.155374,490.677141 L364.15548,490.677118 Z M408.15548,490.677118 C408.042302,490.257805 407.828314,489.873118 407.535773,489.548422 C406.999568,489.067251 406.266071,488.874915 405.880783,488.80503 C405.810279,488.789567 405.738536,488.779672 405.666171,488.772251 C405.647617,488.769778 405.634012,488.76854 405.627208,488.767923 C405.623497,488.767923 405.621642,488.767304 405.621642,488.767304 C405.5901,488.683192 405.559796,488.598464 405.528872,488.514345 C405.46084,488.330654 405.38848,488.150066 405.284573,487.989887 C405.248703,487.934843 405.208502,487.881657 405.163354,487.832179 C404.767537,487.326278 404.16762,487.044868 403.559028,486.957677 C403.319685,486.923662 403.167533,486.918095 402.970875,486.943453 C402.929438,486.949018 402.886145,486.955204 402.839762,486.963244 C402.62021,487.001589 402.417963,487.111056 402.209542,487.172283 C402.10564,487.117239 402.032659,487.023851 401.9436,486.940983 C401.928757,486.926757 401.913295,486.91377 401.899071,486.900165 C401.469245,486.49754 400.947875,486.198824 400.381366,486.09368 C399.846395,485.994725 399.73259,485.945248 398.87107,486.09368 C398.825922,486.101719 398.780775,486.112234 398.735626,486.122129 C397.745466,486.270561 396.950808,486.939127 396.707618,487.805618 C396.663089,487.907046 396.62227,488.010953 396.589492,488.11795 C396.506,488.332562 396.256135,488.321431 396.079252,488.387596 C396.037815,488.40182 395.996997,488.418519 395.956178,488.435218 C395.102702,488.776602 394.396406,489.540418 394.14967,490.48175 C394.095245,490.636985 394.055044,490.797787 394.030305,490.962304 C394.010514,491.092181 394,491.224525 394,491.358121 C394,492.487435 394.726071,493.466401 395.77991,493.937107 C396.207266,494.128207 396.687819,494.236439 397.196191,494.236439 L405.053793,494.236439 C405.622788,494.236439 406.156508,494.100378 406.61974,493.864736 C406.980298,493.681678 407.296952,493.43738 407.553615,493.146692 C407.988397,492.655008 408.25,492.034082 408.25,491.358073 C408.249383,491.123053 408.214129,490.896076 408.155374,490.677141 L408.15548,490.677118 Z M288,506.244878 L288,520 L326,520 L326,505.759509 L322.644061,504.869141 C321.851232,504.658794 321.012902,504.697275 320.242676,504.979368 L320.242676,504.979368 L312.305369,507.886382 C310.825676,508.428315 309.165685,508.050991 308.065648,506.922673 L301.780386,500.475828 C300.394257,499.054064 298.174982,498.864361 296.567661,500.030245 L296.567661,500.030245 L288,506.244878 Z M332,506.244878 L332,520 L370,520 L370,505.759509 L366.644061,504.869141 C365.851232,504.658794 365.012902,504.697275 364.242676,504.979368 L364.242676,504.979368 L356.305369,507.886382 C354.825676,508.428315 353.165685,508.050991 352.065648,506.922673 L345.780386,500.475828 C344.394257,499.054064 342.174982,498.864361 340.567661,500.030245 L340.567661,500.030245 L332,506.244878 Z M376,506.244878 L376,520 L414,520 L414,505.759509 L410.644061,504.869141 C409.851232,504.658794 409.012902,504.697275 408.242676,504.979368 L408.242676,504.979368 L400.305369,507.886382 C398.825676,508.428315 397.165685,508.050991 396.065648,506.922673 L389.780386,500.475828 C388.394257,499.054064 386.174982,498.864361 384.567661,500.030245 L384.567661,500.030245 L376,506.244878 Z M288,529 L326,529 C326.552285,529 327,529.447715 327,530 L327,536 C327,536.552285 326.552285,537 326,537 L288,537 C287.447715,537 287,536.552285 287,536 L287,530 C287,529.447715 287.447715,529 288,529 L288,529 Z M332,529 L370,529 C370.552285,529 371,529.447715 371,530 L371,536 C371,536.552285 370.552285,537 370,537 L332,537 C331.447715,537 331,536.552285 331,536 L331,530 C331,529.447715 331.447715,529 332,529 Z M376,529 L414,529 C414.552285,529 415,529.447715 415,530 L415,536 C415,536.552285 414.552285,537 414,537 L376,537 C375.447715,537 375,536.552285 375,536 L375,530 C375,529.447715 375.447715,529 376,529 Z M288,541 L326,541 C326.552285,541 327,541.447715 327,542 L327,548 C327,548.552285 326.552285,549 326,549 L288,549 C287.447715,549 287,548.552285 287,548 L287,542 C287,541.447715 287.447715,541 288,541 L288,541 Z M332,541 L370,541 C370.552285,541 371,541.447715 371,542 L371,548 C371,548.552285 370.552285,549 370,549 L332,549 C331.447715,549 331,548.552285 331,548 L331,542 C331,541.447715 331.447715,541 332,541 Z M376,541 L414,541 C414.552285,541 415,541.447715 415,542 L415,548 C415,548.552285 414.552285,549 414,549 L376,549 C375.447715,549 375,548.552285 375,548 L375,542 C375,541.447715 375.447715,541 376,541 Z" id="Grid"></path>
        </g>
    </g>
</svg>