<?xml version="1.0" encoding="UTF-8"?>
<svg width="131px" height="68px" viewBox="0 0 131 68" version="1.1" xmlns="http://www.w3.org/2000/svg" xmlns:xlink="http://www.w3.org/1999/xlink">
    <!-- Generator: Sketch 45.2 (43514) - http://www.bohemiancoding.com/sketch -->
    <title>ImageLeft</title>
    <desc>Created with Sketch.</desc>
    <defs></defs>
    <g id="Article-Builder" stroke="none" stroke-width="1" fill="none" fill-rule="evenodd">
        <g id="3.3-Component-Chooser" transform="translate(-452.000000, -348.000000)" fill="#AAB8C2">
            <path d="M520,348 L564.189632,348 C564.741917,348 565.189632,348.447715 565.189632,349 L565.189632,363 C565.189632,363.552285 564.741917,364 564.189632,364 L520,364 C519.447715,364 519,363.552285 519,363 L519,349 L519,349 C519,348.447715 519.447715,348 520,348 Z M453,348 L514,348 C514.552285,348 515,348.447715 515,349 L515,415 L515,415 C515,415.552285 514.552285,416 514,416 L453,416 C452.447715,416 452,415.552285 452,415 L452,349 L452,349 C452,348.447715 452.447715,348 453,348 L453,348 Z M503.859025,362.975896 C503.69022,362.350494 503.371057,361.776735 502.934735,361.292452 C502.134987,360.574788 501.040981,360.287921 500.466325,360.183687 C500.361168,360.160625 500.254165,360.145866 500.146233,360.134798 C500.118559,360.13111 500.098267,360.129263 500.08812,360.128342 C500.082585,360.128342 500.079817,360.127419 500.079817,360.127419 C500.032773,360.001967 499.987575,359.875595 499.941451,359.750132 C499.839983,359.476158 499.732058,359.206813 499.577082,358.967906 C499.523581,358.885808 499.463622,358.806481 499.396283,358.732686 C498.805924,357.978136 497.911152,357.558414 497.00344,357.42837 C496.646461,357.377637 496.419527,357.369334 496.126213,357.407155 C496.06441,357.415455 495.999839,357.424682 495.930658,357.436673 C495.603198,357.493865 495.301548,357.657134 494.990688,357.748453 C494.835719,357.666356 494.726869,357.527069 494.594038,357.403471 C494.571899,357.382254 494.548838,357.362883 494.527623,357.342591 C493.88654,356.742078 493.108919,356.296546 492.263973,356.139723 C491.466068,355.992133 491.296328,355.918338 490.011376,356.139723 C489.944037,356.151714 489.876701,356.167396 489.809362,356.182155 C488.332543,356.40354 487.147315,357.400704 486.784598,358.69307 C486.718183,358.844349 486.657302,358.999325 486.608414,359.158911 C486.483886,359.479004 486.111213,359.462403 485.847394,359.561087 C485.78559,359.582302 485.72471,359.607208 485.66383,359.632114 C484.390874,360.141287 483.337438,361.280515 482.969431,362.684507 C482.888257,362.916039 482.828298,363.155873 482.7914,363.40125 C482.761882,363.594961 482.7462,363.792351 482.7462,363.991609 C482.7462,365.675975 483.829131,367.136098 485.400926,367.838153 C486.038325,368.123178 486.755068,368.284606 487.513302,368.284606 L499.232874,368.284606 C500.081527,368.284606 500.877567,368.081671 501.568476,367.730212 C502.106246,367.457182 502.578533,367.092813 502.961346,366.659253 C503.60982,365.925909 504,364.999801 504,363.991538 C503.999079,363.641007 503.946499,363.302471 503.858866,362.975932 L503.859025,362.975896 Z M453,392.493227 L453,415.004295 L514,415.004295 L514,391.698893 L507.897631,390.048302 C507.091185,389.830172 506.236681,389.870018 505.454034,390.162249 L505.454034,390.162249 L490.581546,395.715443 C489.083627,396.274747 487.396534,395.888275 486.291454,394.732688 L486.291454,394.732688 L473.682085,381.547004 C472.289922,380.091212 470.032426,379.897737 468.412853,381.095413 L453,392.493227 Z M520,372 L581.206865,372 C581.75915,372 582.206865,372.447715 582.206865,373 L582.206865,379 C582.206865,379.552285 581.75915,380 581.206865,380 L520,380 C519.447715,380 519,379.552285 519,379 L519,373 C519,372.447715 519.447715,372 520,372 Z M520,384 L581,384 C581.552285,384 582,384.447715 582,385 L582,391 C582,391.552285 581.552285,392 581,392 L520,392 C519.447715,392 519,391.552285 519,391 L519,385 C519,384.447715 519.447715,384 520,384 Z M520,396 L581.206865,396 C581.75915,396 582.206865,396.447715 582.206865,397 L582.206865,403 C582.206865,403.552285 581.75915,404 581.206865,404 L520,404 C519.447715,404 519,403.552285 519,403 L519,397 C519,396.447715 519.447715,396 520,396 Z M520,408 L556.896532,408 C557.448817,408 557.896532,408.447715 557.896532,409 L557.896532,415 C557.896532,415.552285 557.448817,416 556.896532,416 L520,416 C519.447715,416 519,415.552285 519,415 L519,409 C519,408.447715 519.447715,408 520,408 Z" id="ImageLeft"></path>
        </g>
    </g>
</svg>