<?xml version="1.0" encoding="UTF-8"?>
<svg width="130px" height="68px" viewBox="0 0 130 68" version="1.1" xmlns="http://www.w3.org/2000/svg" xmlns:xlink="http://www.w3.org/1999/xlink">
    <!-- Generator: Sketch 45.2 (43514) - http://www.bohemiancoding.com/sketch -->
    <title>ImageFull</title>
    <desc>Created with Sketch.</desc>
    <defs></defs>
    <g id="Article-Builder" stroke="none" stroke-width="1" fill="none" fill-rule="evenodd">
        <g id="3.3-Component-Chooser" transform="translate(-950.000000, -348.000000)" fill="#AAB8C2">
            <path d="M951,348 L1079,348 C1079.55228,348 1080,348.447715 1080,349 L1080,415 C1080,415.552285 1079.55228,416 1079,416 L951,416 C950.447715,416 950,415.552285 950,415 L950,349 L950,349 C950,348.447715 950.447715,348 951,348 L951,348 Z M982.934735,359.292452 C982.134987,358.574788 981.040981,358.287921 980.466325,358.183687 C980.361168,358.160625 980.254165,358.145866 980.146233,358.134798 C980.082585,358.128342 980.079817,358.127419 980.079817,358.127419 C980.032773,358.001967 979.987575,357.875595 979.941451,357.750132 C979.839983,357.476158 979.732058,357.206813 979.577082,356.967906 C979.523581,356.885808 979.463622,356.806481 979.396283,356.732686 C978.805924,355.978136 977.911152,355.558414 977.00344,355.42837 C976.646461,355.377637 976.419527,355.369334 976.126213,355.407155 C976.06441,355.415455 975.999839,355.424682 975.930658,355.436673 C975.603198,355.493865 975.301548,355.657134 974.990688,355.748453 C974.835719,355.666356 974.726869,355.527069 974.594038,355.403471 C974.571899,355.382254 974.548838,355.362883 974.527623,355.342591 C973.88654,354.742078 973.108919,354.296546 972.263973,354.139723 C971.466068,353.992133 971.296328,353.918338 970.011376,354.139723 C969.944037,354.151714 969.876701,354.167396 969.809362,354.182155 C968.332543,354.40354 967.147315,355.400704 966.784598,356.69307 C966.718183,356.844349 966.657302,356.999325 966.608414,357.158911 C966.483886,357.479004 966.111213,357.462403 965.847394,357.561087 C965.78559,357.582302 965.72471,357.607208 965.66383,357.632114 C964.390874,358.141287 963.337438,359.280515 962.969431,360.684507 C962.888257,360.916039 962.828298,361.155873 962.7914,361.40125 C962.761882,361.594961 962.7462,361.792351 962.7462,361.991609 C962.7462,363.675975 963.829131,365.136098 965.400926,365.838153 C966.038325,366.123178 966.755068,366.284606 967.513302,366.284606 L979.232874,366.284606 C980.081527,366.284606 980.877567,366.081671 981.568476,365.730212 C982.106246,365.457182 982.578533,365.092813 982.961346,364.659253 C983.60982,363.925909 984,362.999801 984,361.991538 C983.999079,361.641007 983.946499,361.302471 983.858866,360.975932 C983.69022,360.350494 983.371057,359.776735 982.934735,359.292452 Z M1003.66105,365.54515 C1003.28633,365.961051 1003.01224,366.453794 1002.86741,366.990919 C1002.79215,367.271351 1002.74699,367.562085 1002.7462,367.863121 C1002.7462,368.729015 1003.08129,369.524355 1003.63819,370.15415 C1003.96695,370.52649 1004.37255,370.83941 1004.83439,371.073887 C1005.42774,371.37572 1006.11138,371.55 1006.8402,371.55 L1016.90495,371.55 C1017.55612,371.55 1018.17166,371.411366 1018.71906,371.166587 C1020.06891,370.563663 1020.99893,369.309712 1020.99893,367.863181 C1020.99893,367.692059 1020.98546,367.522541 1020.96011,367.356182 C1020.92842,367.145453 1020.87693,366.939483 1020.80722,366.740644 C1020.49118,365.534898 1019.58649,364.556531 1018.49327,364.119254 C1018.44099,364.097865 1018.38871,364.076476 1018.33563,364.058256 C1018.10906,363.973506 1017.78901,363.987763 1017.68207,363.712868 C1017.64008,363.575816 1017.5878,363.442722 1017.53076,363.312805 C1017.21926,362.202922 1016.20139,361.346559 1014.9331,361.156435 C1014.87527,361.14376 1014.81744,361.130292 1014.75961,361.119994 C1013.65609,360.929869 1013.51032,360.993244 1012.82508,361.119994 C1012.09944,361.254673 1011.43162,361.637295 1010.88106,362.153015 C1010.86284,362.170442 1010.84304,362.187077 1010.82403,362.205299 C1010.70995,362.311444 1010.61647,362.431064 1010.48338,362.501569 C1010.21642,362.423144 1009.95736,362.282929 1009.67614,362.233812 C1009.61673,362.223514 1009.56127,362.215591 1009.5082,362.208463 C1009.2563,362.175982 1009.06141,362.183113 1008.75483,362.226682 C1007.97529,362.338364 1007.20686,362.69882 1006.69986,363.346826 C1006.64203,363.410201 1006.59054,363.478328 1006.5446,363.548833 C1006.4115,363.754006 1006.31882,363.985319 1006.23168,364.220607 C1006.19206,364.328355 1006.15325,364.436883 1006.11285,364.544621 C1006.11285,364.544621 1006.11047,364.545414 1006.05581,364.550958 C1005.96312,364.560463 1005.87122,364.573138 1005.78091,364.592944 C1005.2874,364.68246 1004.34787,364.928821 1003.66105,365.54515 Z M1057,366 C1059.20914,366 1061,364.209139 1061,362 C1061,359.790861 1059.20914,358 1057,358 C1054.79086,358 1053,359.790861 1053,362 C1053,364.209139 1054.79086,366 1057,366 Z M987.951366,380.771814 L987.951366,380.771814 C987.93088,380.7522 987.910186,380.732804 987.889288,380.71363 C986.261467,379.220146 983.73115,379.329047 982.237665,380.956867 L982.237665,380.956867 L951,415.004295 L985,415.004295 L1046,415.004295 L1079,415.004295 L1079,403.557845 L1070.88756,394.215075 C1068.72456,391.724038 1064.9562,391.44658 1062.45169,393.593957 L1062.45169,393.593957 L1051.60294,402.895697 C1050.11265,404.173469 1047.91537,404.180946 1046.41643,402.913346 L1046.41643,402.913346 L1028.8316,388.042542 C1027.60966,387.009193 1025.88943,386.803594 1024.45837,387.519863 L1024.45837,387.519863 L1007.63333,395.941111 C1006.12172,396.697698 1004.2977,396.422402 1003.07672,395.253391 L987.951366,380.771814 Z" id="ImageFull"></path>
        </g>
    </g>
</svg>