<?xml version="1.0" encoding="UTF-8"?>
<svg width="131px" height="68px" viewBox="0 0 131 68" version="1.1" xmlns="http://www.w3.org/2000/svg" xmlns:xlink="http://www.w3.org/1999/xlink">
    <!-- Generator: Sketch 45.2 (43514) - http://www.bohemiancoding.com/sketch -->
    <title>ImageRight</title>
    <desc>Created with Sketch.</desc>
    <defs></defs>
    <g id="Article-Builder" stroke="none" stroke-width="1" fill="none" fill-rule="evenodd">
        <g id="3.3-Component-Chooser" transform="translate(-618.000000, -348.000000)" fill="#AAB8C2">
            <path d="M619,348 L663.189632,348 C663.741917,348 664.189632,348.447715 664.189632,349 L664.189632,363 C664.189632,363.552285 663.741917,364 663.189632,364 L619,364 C618.447715,364 618,363.552285 618,363 L618,349 L618,349 C618,348.447715 618.447715,348 619,348 L619,348 Z M687,348 L748,348 C748.552285,348 749,348.447715 749,349 L749,415 C749,415.552285 748.552285,416 748,416 L687,416 C686.447715,416 686,415.552285 686,415 L686,349 L686,349 C686,348.447715 686.447715,348 687,348 Z M737.859025,362.975896 C737.69022,362.350494 737.371057,361.776735 736.934735,361.292452 C736.134987,360.574788 735.040981,360.287921 734.466325,360.183687 C734.361168,360.160625 734.254165,360.145866 734.146233,360.134798 C734.118559,360.13111 734.098267,360.129263 734.08812,360.128342 C734.082585,360.128342 734.079817,360.127419 734.079817,360.127419 C734.032773,360.001967 733.987575,359.875595 733.941451,359.750132 C733.839983,359.476158 733.732058,359.206813 733.577082,358.967906 C733.523581,358.885808 733.463622,358.806481 733.396283,358.732686 C732.805924,357.978136 731.911152,357.558414 731.00344,357.42837 C730.646461,357.377637 730.419527,357.369334 730.126213,357.407155 C730.06441,357.415455 729.999839,357.424682 729.930658,357.436673 C729.603198,357.493865 729.301548,357.657134 728.990688,357.748453 C728.835719,357.666356 728.726869,357.527069 728.594038,357.403471 C728.571899,357.382254 728.548838,357.362883 728.527623,357.342591 C727.88654,356.742078 727.108919,356.296546 726.263973,356.139723 C725.466068,355.992133 725.296328,355.918338 724.011376,356.139723 C723.944037,356.151714 723.876701,356.167396 723.809362,356.182155 C722.332543,356.40354 721.147315,357.400704 720.784598,358.69307 C720.718183,358.844349 720.657302,358.999325 720.608414,359.158911 C720.483886,359.479004 720.111213,359.462403 719.847394,359.561087 C719.78559,359.582302 719.72471,359.607208 719.66383,359.632114 C718.390874,360.141287 717.337438,361.280515 716.969431,362.684507 C716.888257,362.916039 716.828298,363.155873 716.7914,363.40125 C716.761882,363.594961 716.7462,363.792351 716.7462,363.991609 C716.7462,365.675975 717.829131,367.136098 719.400926,367.838153 C720.038325,368.123178 720.755068,368.284606 721.513302,368.284606 L733.232874,368.284606 C734.081527,368.284606 734.877567,368.081671 735.568476,367.730212 C736.106246,367.457182 736.578533,367.092813 736.961346,366.659253 C737.60982,365.925909 738,364.999801 738,363.991538 C737.999079,363.641007 737.946499,363.302471 737.858866,362.975932 L737.859025,362.975896 Z M687,392.493227 L687,415.004295 L748,415.004295 L748,391.698893 L741.897631,390.048302 C741.091185,389.830172 740.236681,389.870018 739.454034,390.162249 L739.454034,390.162249 L724.581546,395.715443 C723.083627,396.274747 721.396534,395.888275 720.291454,394.732688 L720.291454,394.732688 L707.682085,381.547004 C706.289922,380.091212 704.032426,379.897737 702.412853,381.095413 L687,392.493227 Z M619,372 L680.206865,372 C680.75915,372 681.206865,372.447715 681.206865,373 L681.206865,379 C681.206865,379.552285 680.75915,380 680.206865,380 L619,380 C618.447715,380 618,379.552285 618,379 L618,373 C618,372.447715 618.447715,372 619,372 L619,372 Z M619,384 L680,384 C680.552285,384 681,384.447715 681,385 L681,391 L681,391 C681,391.552285 680.552285,392 680,392 L619,392 C618.447715,392 618,391.552285 618,391 L618,385 C618,384.447715 618.447715,384 619,384 L619,384 Z M619,396 L680.206865,396 C680.75915,396 681.206865,396.447715 681.206865,397 L681.206865,403 C681.206865,403.552285 680.75915,404 680.206865,404 L619,404 C618.447715,404 618,403.552285 618,403 L618,397 C618,396.447715 618.447715,396 619,396 L619,396 Z M619,408 L655.896532,408 C656.448817,408 656.896532,408.447715 656.896532,409 L656.896532,415 C656.896532,415.552285 656.448817,416 655.896532,416 L619,416 C618.447715,416 618,415.552285 618,415 L618,409 C618,408.447715 618.447715,408 619,408 L619,408 Z" id="ImageRight"></path>
        </g>
    </g>
</svg>