<svg xmlns="http://www.w3.org/2000/svg" width="22" height="18" viewBox="0 0 22 18">
    <path fill="#CA1323" fill-rule="evenodd" d="M0 6.923c0-1.836.729-3.597 2.028-4.895A6.917 6.917 0 0 1 6.923 0a1.384 1.384 0 0 1 1.385 1.385 1.415 1.415 0 0 1-1.402 1.384 4.154 4.154 0 0 0-4.137 4.154v.692h4.154C8.07 7.615 9 8.545 9 9.692v6.231C9 17.07 8.07 18 6.923 18H2.077A2.077 2.077 0 0 1 0 15.923v-9zm12.461 9c0 1.147.93 2.077 2.077 2.077h4.846c1.147 0 2.077-.93 2.077-2.077v-6.23c0-1.147-.93-2.078-2.077-2.078h-4.153v-.692a4.154 4.154 0 0 1 4.136-4.154 1.415 1.415 0 0 0 1.402-1.384A1.384 1.384 0 0 0 19.384 0a6.917 6.917 0 0 0-4.895 2.028 6.917 6.917 0 0 0-2.028 4.895v9z"/>
</svg>
