<?xml version="1.0" encoding="UTF-8"?>
<svg width="124px" height="32px" viewBox="0 0 124 32" version="1.1" xmlns="http://www.w3.org/2000/svg" xmlns:xlink="http://www.w3.org/1999/xlink">
    <!-- Generator: Sketch 45.2 (43514) - http://www.bohemiancoding.com/sketch -->
    <title>Quote</title>
    <desc>Created with Sketch.</desc>
    <defs></defs>
    <g id="Article-Builder" stroke="none" stroke-width="1" fill="none" fill-rule="evenodd">
        <g id="3.3-Component-Chooser" transform="translate(-455.000000, -499.000000)" fill="#AAB8C2">
            <path d="M477,505 L555,505 C555.552285,505 556,505.447715 556,506 L556,512 C556,512.552285 555.552285,513 555,513 L477,513 C476.447715,513 476,512.552285 476,512 L476,506 C476,505.447715 476.447715,505 477,505 Z M477,517 L555,517 C555.552285,517 556,517.447715 556,518 L556,524 C556,524.552285 555.552285,525 555,525 L477,525 C476.447715,525 476,524.552285 476,524 L476,518 C476,517.447715 476.447715,517 477,517 Z M578.538376,525.535936 C578.538376,526.950954 577.976738,528.307714 576.975392,529.308019 C575.975087,530.309364 574.618434,530.871002 573.203309,530.871002 C572.919889,530.871002 572.64898,530.758467 572.448919,530.5584 C572.248858,530.358334 572.136317,530.08743 572.136317,529.80401 C572.148822,529.215298 572.62708,528.74222 573.21686,528.737018 C574.978864,528.729725 576.404232,527.299087 576.404232,525.536042 L576.404232,525.002546 L573.203256,525.002546 C572.319653,525.002546 571.602768,524.285661 571.602768,523.402059 L571.602768,518.600595 C571.602768,517.716992 572.319653,517.000107 573.203256,517.000107 L576.937728,517.000107 C577.82133,517.000107 578.538215,517.716992 578.538215,518.600595 L578.538376,525.535936 Z M568.935448,518.600488 L568.935608,525.535829 C568.935608,526.950954 568.37397,528.307607 567.372625,529.307912 C566.37232,530.309258 565.015559,530.870896 563.600541,530.870896 C563.317122,530.870896 563.046218,530.758355 562.846151,530.558294 C562.646085,530.358233 562.533549,530.087323 562.533549,529.803904 C562.54606,529.215191 563.024339,528.742121 563.614092,528.736912 C565.376016,528.729709 566.801464,527.29898 566.801464,525.535936 L566.801464,525.00244 L563.600488,525.00244 C562.716885,525.00244 562,524.285555 562,523.401952 L562,518.600488 C562,517.716885 562.716885,517 563.600488,517 L567.33496,517 C568.218563,517 568.935448,517.716885 568.935448,518.600488 Z M455,504.335067 C455,502.920048 455.561638,501.563288 456.562983,500.562983 C457.563288,499.561638 458.919942,499 460.335067,499 C460.618486,499 460.889396,499.112536 461.089457,499.312602 C461.289518,499.512668 461.402059,499.783572 461.402059,500.066992 C461.389553,500.655705 460.911296,501.128782 460.321516,501.133984 C458.559512,501.141277 457.134144,502.571916 457.134144,504.33496 L457.134144,504.868456 L460.33512,504.868456 C461.218723,504.868456 461.935608,505.585341 461.935608,506.468944 L461.935608,511.270408 C461.935608,512.15401 461.218723,512.870896 460.33512,512.870896 L456.600648,512.870896 C455.717045,512.870896 455.00016,512.15401 455.00016,511.270408 L455,504.335067 Z M464.602928,511.270514 L464.602768,504.335173 C464.602768,502.920048 465.164406,501.563395 466.165751,500.56309 C467.166056,499.561745 468.522816,499.000107 469.937834,499.000107 C470.221254,499.000107 470.492158,499.112648 470.692224,499.312709 C470.892291,499.51277 471.004826,499.783679 471.004826,500.067099 C470.992316,500.655811 470.514037,501.128881 469.924283,501.134091 C468.16236,501.141293 466.736912,502.572022 466.736912,504.335067 L466.736912,504.868563 L469.937888,504.868563 C470.82149,504.868563 471.538376,505.585448 471.538376,506.46905 L471.538376,511.270514 C471.538376,512.154117 470.82149,512.871002 469.937888,512.871002 L466.203416,512.871002 C465.319813,512.871002 464.602928,512.154117 464.602928,511.270514 Z" id="Quote"></path>
        </g>
    </g>
</svg>