<?xml version="1.0" encoding="UTF-8"?>
<svg width="130px" height="68px" viewBox="0 0 130 68" version="1.1" xmlns="http://www.w3.org/2000/svg" xmlns:xlink="http://www.w3.org/1999/xlink">
    <!-- Generator: Sketch 45.2 (43514) - http://www.bohemiancoding.com/sketch -->
    <title>Title+Text</title>
    <desc>Created with Sketch.</desc>
    <defs></defs>
    <g id="Article-Builder" stroke="none" stroke-width="1" fill="none" fill-rule="evenodd">
        <g id="3.3-Component-Chooser" transform="translate(-286.000000, -347.000000)" fill="#AAB8C2">
            <path d="M287,347 L380,347 C380.552285,347 381,347.447715 381,348 L381,362 L381,362 C381,362.552285 380.552285,363 380,363 L287,363 C286.447715,363 286,362.552285 286,362 L286,348 L286,348 C286,347.447715 286.447715,347 287,347 L287,347 Z M287,371 L415,371 C415.552285,371 416,371.447715 416,372 L416,378 C416,378.552285 415.552285,379 415,379 L287,379 C286.447715,379 286,378.552285 286,378 L286,372 C286,371.447715 286.447715,371 287,371 L287,371 Z M287,383 L405,383 C405.552285,383 406,383.447715 406,384 L406,390 C406,390.552285 405.552285,391 405,391 L287,391 C286.447715,391 286,390.552285 286,390 L286,384 C286,383.447715 286.447715,383 287,383 L287,383 Z M287,395 L415,395 C415.552285,395 416,395.447715 416,396 L416,402 C416,402.552285 415.552285,403 415,403 L287,403 C286.447715,403 286,402.552285 286,402 L286,396 C286,395.447715 286.447715,395 287,395 L287,395 Z M287,407 L365,407 C365.552285,407 366,407.447715 366,408 L366,414 C366,414.552285 365.552285,415 365,415 L287,415 C286.447715,415 286,414.552285 286,414 L286,408 C286,407.447715 286.447715,407 287,407 L287,407 Z" id="Title+Text"></path>
        </g>
    </g>
</svg>