<?xml version="1.0" encoding="UTF-8"?>
<svg width="61px" height="51px" viewBox="0 0 61 51" version="1.1" xmlns="http://www.w3.org/2000/svg" xmlns:xlink="http://www.w3.org/1999/xlink">
    <!-- Generator: Sketch 45.2 (43514) - http://www.bohemiancoding.com/sketch -->
    <title>Twitter</title>
    <desc>Created with Sketch.</desc>
    <defs></defs>
    <g id="Article-Builder" stroke="none" stroke-width="1" fill="none" fill-rule="evenodd">
        <g id="3.3-Component-Chooser" transform="translate(-818.000000, -489.000000)" fill="#AAB8C2">
            <path d="M876.92862,495.062751 C877.37108,493.563173 876.865033,491.938998 875.63571,490.96399 C874.938927,490.407602 874.09374,490.126739 873.237904,490.126739 C872.56229,490.126739 871.886663,490.304255 871.279954,490.664583 C870.074472,491.372015 868.815949,491.938977 867.499164,492.339086 C864.984832,490.415592 861.866369,489.345153 858.660681,489.345153 C851.313704,489.345153 845.227624,494.824253 844.268556,501.911385 C838.410577,500.658153 833.074455,497.4311 829.230044,492.714778 C828.498806,491.811328 827.399269,491.294625 826.25205,491.294625 C826.156672,491.294625 826.053338,491.302574 825.950011,491.307871 C824.691489,491.405901 823.5655,492.115957 822.929625,493.204913 C821.63936,495.417213 820.958449,497.939548 820.958449,500.511872 C820.958449,502.247283 821.265785,503.937657 821.835447,505.514083 C821.22342,506.210866 820.86573,507.114384 820.86573,508.070806 C820.86573,511.880762 822.3044,515.383191 824.699492,518.014185 C824.551122,518.671255 824.57497,519.365426 824.789573,520.030466 C825.618889,522.626936 827.134338,524.860465 829.097647,526.566711 C827.823253,526.855503 826.506467,527.003874 825.168452,527.003874 C824.474315,527.003874 823.774819,526.958837 823.067388,526.879351 C822.919017,526.860807 822.767995,526.850206 822.616979,526.850206 C821.008742,526.850206 819.551555,527.857024 819.005755,529.406929 C818.399025,531.089368 819.040198,532.970471 820.545079,533.937542 C826.066571,537.474563 832.449325,539.345153 838.995948,539.345153 C860.231775,539.345153 872.994027,522.25353 873.224637,505.569545 C874.952113,504.096419 876.47292,502.4034 877.76054,500.511716 C878.248044,499.867892 878.536816,499.070401 878.536816,498.196048 C878.534164,496.905783 877.900942,495.763854 876.928579,495.061714 L876.92862,495.062751 Z M869.34832,503.724207 C869.372168,504.182566 869.382763,504.643597 869.382763,505.104614 C869.382763,519.218649 858.63903,535.491605 838.995771,535.491605 C832.96558,535.491605 827.351302,533.724383 822.621754,530.693417 C823.453715,530.786149 824.306838,530.844439 825.170541,530.844439 C830.175398,530.844439 834.7775,529.135548 838.436744,526.268789 C833.757795,526.186658 829.818019,523.094708 828.456061,518.85263 C829.107834,518.977153 829.778137,519.046044 830.461694,519.046044 C831.439346,519.046044 832.382543,518.913572 833.275412,518.669817 C828.389795,517.684229 824.706879,513.37351 824.706879,508.194 L824.706879,508.061528 C826.148194,508.859033 827.796177,509.338567 829.544814,509.394185 C826.6807,507.478626 824.796952,504.206536 824.796952,500.502797 C824.796952,498.547492 825.324196,496.714071 826.243558,495.137578 C831.508055,501.59962 839.379534,505.849431 848.255322,506.294374 C848.069857,505.515453 847.982428,504.696718 847.982428,503.859535 C847.982428,497.9671 852.7621,493.184986 858.656977,493.184986 C861.730336,493.184986 864.507021,494.480609 866.454322,496.55244 C868.883871,496.075538 871.173018,495.187973 873.234336,493.963906 C872.434186,496.457076 870.741166,498.550137 868.539447,499.869568 C870.698775,499.615218 872.752089,499.040252 874.670361,498.187129 C873.242272,500.338521 871.435372,502.219623 869.347533,503.72456 L869.34832,503.724207 Z" id="Twitter"></path>
        </g>
    </g>
</svg>