<?xml version="1.0" encoding="UTF-8"?>
<svg width="131px" height="68px" viewBox="0 0 131 68" version="1.1" xmlns="http://www.w3.org/2000/svg" xmlns:xlink="http://www.w3.org/1999/xlink">
    <!-- Generator: Sketch 45.2 (43514) - http://www.bohemiancoding.com/sketch -->
    <title>TwoColumn</title>
    <desc>Created with Sketch.</desc>
    <defs></defs>
    <g id="Article-Builder" stroke="none" stroke-width="1" fill="none" fill-rule="evenodd">
        <g id="3.3-Component-Chooser" transform="translate(-784.000000, -348.000000)" fill="#AAB8C2">
            <path d="M785,348 L913,348 C913.552285,348 914,348.447715 914,349 L914,363 C914,363.552285 913.552285,364 913,364 L785,364 C784.447715,364 784,363.552285 784,363 L784,349 L784,349 C784,348.447715 784.447715,348 785,348 L785,348 Z M785,372 L846.206865,372 C846.75915,372 847.206865,372.447715 847.206865,373 L847.206865,379 C847.206865,379.552285 846.75915,380 846.206865,380 L785,380 C784.447715,380 784,379.552285 784,379 L784,373 C784,372.447715 784.447715,372 785,372 L785,372 Z M852,372 L913.206865,372 C913.75915,372 914.206865,372.447715 914.206865,373 L914.206865,379 C914.206865,379.552285 913.75915,380 913.206865,380 L852,380 C851.447715,380 851,379.552285 851,379 L851,373 C851,372.447715 851.447715,372 852,372 Z M785,384 L846,384 C846.552285,384 847,384.447715 847,385 L847,391 C847,391.552285 846.552285,392 846,392 L785,392 C784.447715,392 784,391.552285 784,391 L784,385 C784,384.447715 784.447715,384 785,384 L785,384 Z M852,384 L913,384 C913.552285,384 914,384.447715 914,385 L914,391 C914,391.552285 913.552285,392 913,392 L852,392 C851.447715,392 851,391.552285 851,391 L851,385 C851,384.447715 851.447715,384 852,384 Z M785,396 L846.206865,396 C846.75915,396 847.206865,396.447715 847.206865,397 L847.206865,403 C847.206865,403.552285 846.75915,404 846.206865,404 L785,404 C784.447715,404 784,403.552285 784,403 L784,397 C784,396.447715 784.447715,396 785,396 L785,396 Z M852,396 L913.206865,396 C913.75915,396 914.206865,396.447715 914.206865,397 L914.206865,403 C914.206865,403.552285 913.75915,404 913.206865,404 L852,404 C851.447715,404 851,403.552285 851,403 L851,397 C851,396.447715 851.447715,396 852,396 Z M785,408 L846,408 C846.552285,408 847,408.447715 847,409 L847,415 C847,415.552285 846.552285,416 846,416 L785,416 C784.447715,416 784,415.552285 784,415 L784,409 C784,408.447715 784.447715,408 785,408 L785,408 Z M852,408 L888.896532,408 C889.448817,408 889.896532,408.447715 889.896532,409 L889.896532,415 C889.896532,415.552285 889.448817,416 888.896532,416 L852,416 C851.447715,416 851,415.552285 851,415 L851,409 C851,408.447715 851.447715,408 852,408 Z" id="TwoColumn"></path>
        </g>
    </g>
</svg>